<svg xmlns="http://www.w3.org/2000/svg" width="100" height="100" fill="none"><g clip-path="url(#a)"><g clip-path="url(#b)"><circle cx="50" cy="50" r="49.5" fill="#fff" stroke="#CFDBF6"/><path fill="#4F83FC" fill-rule="evenodd" d="M36.903 29c-2.08 0-3.766 1.628-3.766 3.637v7.25l-3.292 1.886C28.701 42.428 28 43.617 28 44.9v21.544c0 2.008 1.686 3.637 3.767 3.637h36.467c2.08 0 3.766-1.629 3.766-3.637V44.9c0-1.284-.701-2.473-1.845-3.128l-3.462-1.984v-7.152c0-2.009-1.686-3.637-3.767-3.637H36.903Zm29.79 12.712v7.424l3.595-1.757v-2.478c0-.7-.382-1.35-1.006-1.707l-2.589-1.482Zm-1.712 8.26V32.637c0-1.096-.92-1.984-2.054-1.984H36.902c-1.134 0-2.054.888-2.054 1.984v17.35l14.898 7.429 15.234-7.444Zm-31.844-.839V41.81l-2.419 1.385a1.972 1.972 0 0 0-1.006 1.707v2.525l3.425 1.707Zm11.965-14.766a.807.807 0 0 1 0 1.169l-5.448 5.26 5.508 5.32a.807.807 0 0 1 0 1.168.878.878 0 0 1-1.21 0l-6.054-5.845a.804.804 0 0 1-.031-.032.807.807 0 0 1-.029-1.195l6.053-5.845a.878.878 0 0 1 1.21 0Zm10.91 12.917a.878.878 0 0 1-1.211 0 .807.807 0 0 1 0-1.169l5.508-5.319-5.448-5.26a.807.807 0 0 1 0-1.17.878.878 0 0 1 1.21 0l6.054 5.846a.807.807 0 0 1-.029 1.195.87.87 0 0 1-.031.032l-6.053 5.845Zm-8.65-2.2a.819.819 0 0 0 .51 1.06.865.865 0 0 0 1.098-.495l3.513-9.32a.819.819 0 0 0-.511-1.06.865.865 0 0 0-1.098.494l-3.513 9.32Zm-17.65 4.202v17.159c0 1.095.92 1.984 2.055 1.984h36.467c1.134 0 2.054-.889 2.054-1.984V49.232l-20.158 9.85a.884.884 0 0 1-.78-.003l-19.638-9.793Z" clip-rule="evenodd"/></g></g><defs><clipPath id="a"><path fill="#fff" d="M0 0h100v100H0z"/></clipPath><clipPath id="b"><path fill="#fff" d="M0 0h100v100H0z"/></clipPath></defs></svg>