<svg xmlns="http://www.w3.org/2000/svg" width="100" height="100" fill="none"><circle cx="50" cy="50" r="49.5" fill="#fff" stroke="#CFDBF6"/><path fill="#4F83FC" fill-rule="evenodd" d="M39.438 63.27a1.072 1.072 0 0 1-1.516 0L25.287 50.637a1.072 1.072 0 0 1 1.516-1.517l12.635 12.636a1.072 1.072 0 0 1 0 1.516Z" clip-rule="evenodd"/><path fill="#4F83FC" fill-rule="evenodd" d="M39.31 36.358a1.072 1.072 0 0 1 0 1.516L26.675 50.51a1.072 1.072 0 1 1-1.516-1.516l12.635-12.635a1.072 1.072 0 0 1 1.516 0ZM60.564 63.27a1.072 1.072 0 0 0 1.516 0l12.635-12.634a1.072 1.072 0 0 0-1.516-1.517L60.564 61.755a1.072 1.072 0 0 0 0 1.516Z" clip-rule="evenodd"/><path fill="#4F83FC" fill-rule="evenodd" d="M60.69 36.358a1.072 1.072 0 0 0 0 1.516L73.325 50.51a1.072 1.072 0 1 0 1.516-1.516L62.206 36.358a1.072 1.072 0 0 0-1.516 0ZM45.843 60.638a1.072 1.072 0 0 1-.64-1.374l7.333-20.15a1.072 1.072 0 1 1 2.015.734l-7.333 20.15a1.072 1.072 0 0 1-1.375.64Z" clip-rule="evenodd"/></svg>