<svg xmlns="http://www.w3.org/2000/svg" width="100" height="100" fill="none"><g clip-path="url(#a)"><g clip-path="url(#b)"><circle cx="50" cy="50" r="49.5" fill="#fff" stroke="#CFDBF6"/><path fill="#4F83FC" fill-rule="evenodd" d="M49.833 57.706c8.767 0 15.873-7.107 15.873-15.873 0-8.767-7.107-15.873-15.873-15.873-8.767 0-15.873 7.106-15.873 15.873s7.106 15.873 15.873 15.873Zm0 1.96c9.849 0 17.833-7.984 17.833-17.833C67.666 31.984 59.682 24 49.833 24 39.984 24 32 31.984 32 41.833c0 9.849 7.984 17.833 17.833 17.833Z" clip-rule="evenodd"/><path fill="#4F83FC" fill-rule="evenodd" d="M61.2 73.84V53.396h1.96V73.84c0 1.753-1.984 2.773-3.41 1.753l-9.329-6.672-9.328 6.672c-1.426 1.02-3.41 0-3.41-1.753V54.179h1.96V73.84c0 .159.18.252.31.159l9.442-6.753a1.764 1.764 0 0 1 2.052 0L60.89 74c.13.093.31 0 .31-.16Zm-10.665-5ZM50.03 34.821l-1.569 3.288a3.136 3.136 0 0 1-2.42 1.758l-3.611.476 2.642 2.508c.77.73 1.117 1.801.924 2.845l-.663 3.582 3.201-1.738a3.135 3.135 0 0 1 2.992 0l3.201 1.738-.663-3.582a3.135 3.135 0 0 1 .924-2.845l2.642-2.508-3.611-.476a3.136 3.136 0 0 1-2.42-1.758L50.03 34.82Zm1.061-2.326c-.426-.893-1.696-.893-2.122 0l-2.276 4.77c-.172.36-.513.607-.908.66l-5.24.69c-.98.13-1.373 1.337-.656 2.018l3.833 3.64c.29.273.42.675.347 1.066l-.962 5.197c-.18.973.848 1.72 1.717 1.248l4.645-2.521c.35-.19.772-.19 1.122 0l4.645 2.52c.87.473 1.897-.274 1.717-1.247l-.962-5.197a1.176 1.176 0 0 1 .347-1.067l3.833-3.639c.717-.68.325-1.889-.656-2.018l-5.24-.69a1.176 1.176 0 0 1-.907-.66l-2.277-4.77Z" clip-rule="evenodd"/></g></g><defs><clipPath id="a"><path fill="#fff" d="M0 0h100v100H0z"/></clipPath><clipPath id="b"><path fill="#fff" d="M0 0h100v100H0z"/></clipPath></defs></svg>