<svg xmlns="http://www.w3.org/2000/svg" width="100" height="100" fill="none"><g clip-path="url(#a)"><g clip-path="url(#b)"><circle cx="50" cy="50" r="49.5" fill="#fff" stroke="#CFDBF6"/><path fill="#4F83FC" fill-rule="evenodd" d="M69.634 30.693h-30.33a.64.64 0 0 0-.646.634v19.888c0 .35.29.635.646.635H50.08c.614 0 1.2.258 1.608.71l2.887 3.195 2.888-3.195c.408-.452.993-.71 1.608-.71h10.562a.64.64 0 0 0 .645-.635V31.327a.64.64 0 0 0-.645-.634ZM39.304 29c-1.307 0-2.367 1.042-2.367 2.327v9.36h-5.74A3.204 3.204 0 0 0 28 43.9v20.128a3.204 3.204 0 0 0 3.196 3.212h10.485l3.37 3.81c.678.767 1.87.767 2.548 0l3.37-3.81h10.272a3.204 3.204 0 0 0 3.197-3.212V53.542h5.196C70.94 53.542 72 52.5 72 51.215V31.327C72 30.042 70.94 29 69.634 29h-30.33Zm23.429 24.542h-3.661a.433.433 0 0 0-.322.142l-3.53 3.907a.87.87 0 0 1-1.287 0l-3.53-3.907a.433.433 0 0 0-.322-.142H39.304c-1.307 0-2.367-1.042-2.367-2.327V42.4h-5.74c-.825 0-1.492.672-1.492 1.5v20.128c0 .828.668 1.499 1.491 1.499h10.676c.365 0 .713.157.956.43l3.497 3.955 3.498-3.954c.242-.274.59-.431.955-.431h10.463c.824 0 1.492-.671 1.492-1.5V53.543ZM43.125 36.05c0-.476.379-.862.846-.862H64.71c.467 0 .846.386.846.862a.855.855 0 0 1-.846.863H43.972a.855.855 0 0 1-.847-.863Zm0 5.177c0-.477.396-.863.885-.863h15.485c.489 0 .885.386.885.863a.874.874 0 0 1-.885.863H44.01a.874.874 0 0 1-.885-.863Zm.863 4.313a.863.863 0 0 0 0 1.726h20.706a.863.863 0 1 0 0-1.726H43.988Z" clip-rule="evenodd"/></g></g><defs><clipPath id="a"><path fill="#fff" d="M0 0h100v100H0z"/></clipPath><clipPath id="b"><path fill="#fff" d="M0 0h100v100H0z"/></clipPath></defs></svg>