<svg xmlns="http://www.w3.org/2000/svg" width="76" height="32" fill="none"><g clip-path="url(#a)" style="mix-blend-mode:multiply"><path fill="#4F83FC" d="M51.481 31.944c-.06-.067-.124-.025-.177-.133-.187-.004-.375-.11-.564-.053-.03-.01-.062-.028-.091-.032-1.526-.277-3.045-.719-4.564-1.154-2.091-.596-4.174-1.308-6.259-2.042-.704-.245-1.406-.515-2.108-.772.128-.15.26-.126.39-.126 1.197.032 2.397.039 3.594-.032 2.41-.14 4.812-.512 7.215-.95 2.11-.386 4.216-.867 6.317-1.509 2.541-.775 5.075-1.68 7.597-2.814 2.75-1.235 5.478-2.715 8.139-4.95 1.191-1.003 2.37-2.091 3.485-3.607.603-.82 1.078-1.968 1.424-3.494.187-.828.161-1.723-.088-2.414-.111-.308-.224-.61-.359-.849-1.307-2.315-2.767-3.613-4.297-4.487-.027-.028-.056-.067-.086-.084a13.042 13.042 0 0 0-3.805-1.48C65.474.581 63.7.391 61.922.33 59.657.25 57.395.235 55.13.193c-.055-.116-.12-.067-.18-.07C54.41.105 53.867.095 53.325.07c-.086-.003-.174.056-.256-.07H37.9c-.049.102-.107.063-.162.067-.542.02-1.084.031-1.624.056-.067.003-.139-.056-.2.073-2.338.106-4.676.229-7.013.439-2.305.207-4.612.361-6.918.614-2.61.277-5.217.586-7.825 1-.403.063-.803.182-1.207.274l.006.02-.002.004-.004-.024c-.031-.007-.062-.029-.092-.022-.918.222-1.839.39-2.754.674-1.774.55-3.551 1.084-5.308 1.99-1.09.56-2.171 1.189-3.226 2.094-.275.238-.558.452-.796.923C.513 8.518.334 9.1.18 9.7c-.254 1.003-.285 2.14.195 2.894.07.109.135.239.203.347.673 1.06 1.414 1.706 2.155 2.333 1.794 1.52 3.634 2.59 5.48 3.558.783.41 1.565.821 2.355 1.14.056.134.134.109.199.193-.168-.017-.334-.06-.502-.091-.043-.007-.095-.007-.097.147-.002.144.037.19.088.172.085.035.171.074.257.109 1.789.72 3.561 1.666 5.35 2.375 1.264.502 2.524 1.109 3.793 1.495 1.48.449 2.955 1.056 4.44 1.428.887.224 1.77.579 2.66.74 1.076.196 2.155.375 3.23.617 1.702.386 3.39 1.14 5.086 1.684 1.53.492 3.06.976 4.591 1.393 1.402.383 2.807.702 4.215.955 1.139.2 2.278.414 3.419.512.04.02.084.052.125.056.031.003.064.003.095.007.158.032.318.038.478.038.804.067 1.605.134 2.409.197h1.112a.2.2 0 0 0-.036-.056ZM5.438 14.932c-1.123-.688-2.245-1.393-3.325-2.467a2.722 2.722 0 0 1-.595-.905c-.187-.442-.176-.796.047-1.101.45-.621.942-.951 1.427-1.306 1.541-1.13 3.12-1.782 4.703-2.333 3.124-1.084 6.264-1.69 9.408-2.164 4.135-.625 8.278-.916 12.416-1.267 7.347-.617 14.698-.688 22.05-.61 3.719.038 7.438.108 11.157.19 1.828.038 3.655.224 5.477.659 1.543.368 3.07.989 4.552 2.196.527.428 1.02 1.049 1.459 1.94.48.975.482 1.709.014 2.726-.271.59-.601.912-.898 1.393-.058.056-.116.102-.173.172-.566.694-1.137 1.337-1.728 1.866-2.144 1.923-4.326 3.488-6.547 4.663-2.323 1.231-4.664 2.203-7.01 3.042a56.13 56.13 0 0 1-4.067 1.294c-1.439.393-2.88.733-4.322 1.067-1.54.358-3.085.6-4.63.831-1.67.25-3.34.446-5.012.527-2.664.13-5.33.098-7.995.01-.168-.007-.337-.014-.505-.07-.866-.295-1.73-.625-2.594-.909-1.595-.526-3.185-1.207-4.778-1.764-.488-.172-.972-.41-1.463-.481-.4-.158-.8-.323-1.201-.467-.89-.323-1.78-.631-2.667-.947-1.143-.403-2.284-.814-3.427-1.2-.977-.333-1.948-.733-2.921-1.144-2.298-.964-4.585-2.052-6.852-3.441Zm7.616 6.196c0 .003 0 0 0 0Zm2.003.831c.002 0 .002 0 .004-.003.035-.025.078.006.111-.025-.037-.014-.072-.032-.109-.046.033-.017.074.039.11.046.842.302 1.685.614 2.53.905.393.137.783.326 1.181.376.035.003.068.063.102.094a.213.213 0 0 1-.05.077h-.001c-.07.064-.15-.038-.219.032-.195-.21-.403-.08-.606-.161-.919-.365-1.838-.695-2.758-1.035-.115-.043-.217-.253-.34-.176.014-.045.028-.07.045-.084Z"/></g><defs><clipPath id="a"><path fill="#fff" d="M0 0h76v32H0z"/></clipPath></defs></svg>